# xmcd CD database file
#
# Track frame offsets:
#	150
#	39887
#	68114
#	107172
#	127825
#	152913
#	187934
#
# Disc length: 2918 seconds
#
# Revision: 0
# Processed by: cddbd v1.5.1PL0 Copyright (c) Steve Scherf et al.
# Submitted via: CDex 1.51
#
DISCID=500b6407
DTITLE=Various Artist - Music With 58 Musicians, Volume One, Disc Two
DYEAR=1980
DGENRE=Jazz
TTITLE0=Jack Dejohnette's Special Edition - Journey to the Twin Planet
TTITLE1=Paul Motian Trio - Drum Music
TTITLE2=Art Ensemble of Chicago - JA
TTITLE3=Steve Kuhn - Sheila Jordan Band - The Zoo
TTITLE4=John Abercrombie Quartet - Nightlake
TTITLE5=Haden/Garbarek/Gismonti - Magico
TTITLE6=Pat Metheny Group - (Cross the) Heartland
EXTD=YEAR: 1980
EXTT0=
EXTT1=
EXTT2=
EXTT3=
EXTT4=
EXTT5=
EXTT6=
PLAYORDER=
